<?xml version="1.0" encoding="utf-8"?>
<!-- Generator: Adobe Illustrator 19.2.1, SVG Export Plug-In . SVG Version: 6.00 Build 0)  -->
<svg version="1.1" id="Layer_1" xmlns="http://www.w3.org/2000/svg" xmlns:xlink="http://www.w3.org/1999/xlink" x="0px" y="0px"
	 viewBox="0 0 150 23" style="enable-background:new 0 0 150 23;" xml:space="preserve">
<style type="text/css">
	.st0{fill:#FFFFFF;}
</style>
<g id="humana">
</g>
<g id="humana_vitality">
</g>
<g id="jencare">
	<g>
		<path class="st0" d="M10.6,0C4.8,0,0,5.2,0,11.5C0,17.9,4.7,23,10.6,23c5.8,0,10.6-5.1,10.6-11.5C21.1,5.2,16.4,0,10.6,0z
			 M6.9,7.9C6.8,8.4,6.7,8.8,6.4,9.2C6.2,9.5,5.9,9.7,5.8,9.9S5.4,10.4,5.4,11c0,0.3,0.1,6.7,0.1,6.7H4.9c0-0.3-0.1-6.5-0.1-6.7
			c0-0.9,0.3-1.3,0.5-1.5C5.5,9.2,5.7,9,6,8.7c0.2-0.2,0.3-0.4,0.3-0.8c0-0.3,0.1-2.3,0.1-3H7C7,5.5,6.9,7.6,6.9,7.9z M12.7,17.4
			c0,0.2-0.1,0.3-0.3,0.3c-0.2,0-3.4,0-3.6,0s-0.3-0.1-0.3-0.3c-0.1-0.2,0.2-0.3,0.3-0.3C9,17,9.7,16.9,9.9,16.9
			c0.2-0.1,0.4-0.2,0.4-0.4c0-0.2,0-4.9,0-5.6c0-0.8-0.3-1.2-0.9-1.8C9.1,8.8,8.9,8.4,8.9,7.8C8.8,7.5,8.8,5.9,8.8,5.2V4.8h3.9v0.4
			c0,0.7-0.1,2.4-0.1,2.6c-0.1,0.5-0.2,0.9-0.5,1.3s-0.9,0.9-0.9,1.7c0,0.9,0.1,5.5,0.1,5.7s0.2,0.4,0.4,0.4c0.2,0,0.9,0.1,1.1,0.1
			C12.6,17.2,12.8,17.3,12.7,17.4z M16.2,17.7h-0.6c0-0.1,0.1-6.5,0.1-6.7c0-0.6-0.2-0.9-0.3-1.1c-0.1-0.2-0.4-0.5-0.6-0.7
			c-0.3-0.4-0.5-0.8-0.5-1.3c-0.1-0.3-0.1-2.4-0.1-3.1h0.6c0,0.7,0.1,2.8,0.1,3C15,8.3,15,8.5,15.2,8.6c0.3,0.3,0.5,0.5,0.7,0.8
			c0.2,0.2,0.5,0.7,0.5,1.5C16.3,11.2,16.2,17.4,16.2,17.7z"/>
		<path class="st0" d="M27.9,11.1c0-1.9,0-2.3,0-2.7c-0.1-0.4-0.1-0.6-0.6-0.7c-0.1,0-0.3,0-0.5,0c-0.1,0-0.2-0.1-0.2-0.1
			s0.1-0.1,0.3-0.1c0.7,0,1.5,0.1,1.7,0.1c0.6,0,1.1-0.1,1.6-0.1c2.3,0,2.7,1.3,2.7,1.9c0,1.1-0.6,1.7-1.3,2.2
			c1,0.4,2.3,1.3,2.3,2.8c0,1.4-1.1,2.8-3.4,2.8c-0.3,0-1.5-0.1-1.9-0.1c-0.3,0-1.1,0.1-1.6,0.1c-0.2,0-0.3-0.1-0.3-0.2
			s0.1-0.1,0.2-0.1c0.2,0,0.3-0.1,0.5-0.1c0.3-0.1,0.3-0.3,0.4-0.7c0.1-0.5,0.1-1.6,0.1-2.7L27.9,11.1L27.9,11.1z M31.1,12.4
			c-0.3-0.2-0.5-0.3-1.1-0.3c-0.2,0-0.3,0-0.5,0c-0.1,0-0.1,0-0.1,0.1v3c0,0.9,0.1,1.1,0.5,1.3c0.3,0.1,0.7,0.2,0.9,0.2
			c0.6,0,1.5-0.3,1.5-1.7C32.3,14.1,32.1,13,31.1,12.4L31.1,12.4z M29.4,11.3c0,0.1,0.1,0.1,0.1,0.1c0.1,0.1,0.3,0.1,0.6,0.1
			c0.4,0,0.7-0.1,0.9-0.3c0.3-0.3,0.5-0.7,0.5-1.3c0-0.9-0.5-2-1.6-2c-0.2,0-0.3,0-0.4,0C29.4,8,29.4,8,29.4,8.1V11.3L29.4,11.3z"/>
		<path class="st0" d="M36.5,11.1c0-1.9,0-2.3-0.1-2.7c0-0.4-0.1-0.6-0.5-0.7c-0.1,0-0.3,0-0.5,0c-0.1,0-0.2-0.1-0.2-0.1
			s0.1-0.1,0.3-0.1c0.7,0,1.5,0.1,1.7,0.1c0.4,0,1.4-0.1,1.8-0.1c0.8,0,1.7,0.1,2.4,0.5c0.4,0.3,0.9,0.9,0.9,1.8s-0.4,1.8-1.7,2.9
			c1.2,1.4,2,2.6,2.8,3.4c0.7,0.7,1.2,0.8,1.4,0.9c0.2,0.1,0.3,0.1,0.4,0.1s0.1,0.1,0.1,0.1c0,0.1-0.1,0.1-0.2,0.1h-1.3
			c-0.7,0-1-0.1-1.4-0.3c-0.5-0.3-1-0.9-1.7-1.9c-0.5-0.7-1.1-1.6-1.3-1.7c-0.1-0.1-0.1-0.1-0.2-0.1h-1.1c-0.1,0-0.1,0-0.1,0.1v0.2
			c0,1.2,0,2.2,0.1,2.7c0.1,0.4,0.1,0.7,0.5,0.7c0.2,0,0.5,0.1,0.6,0.1s0.2,0.1,0.2,0.1c0,0.1-0.1,0.2-0.3,0.2
			c-0.7,0-1.7-0.1-1.9-0.1c-0.3,0-1,0.1-1.6,0.1c-0.2,0-0.3-0.1-0.3-0.2s0.1-0.1,0.2-0.1c0.2,0,0.4-0.1,0.5-0.1
			c0.3-0.1,0.3-0.3,0.4-0.7c0.1-0.5,0.1-1.6,0.1-2.7L36.5,11.1L36.5,11.1z M38,12.1c0,0.1,0.1,0.2,0.1,0.3c0.3,0.1,0.7,0.1,1,0.1
			c0.5,0,0.7-0.1,0.9-0.3c0.4-0.3,0.7-0.9,0.7-1.9c0-1.8-1.2-2.3-1.9-2.3c-0.3,0-0.6,0-0.7,0.1C38,8.1,38,8.2,38,8.3V12.1L38,12.1z"
			/>
		<path class="st0" d="M44.8,12.2c0-2.2,1.4-5,5.3-5c3.2,0,5.2,1.9,5.2,4.8s-2.1,5.3-5.3,5.3C46.2,17.3,44.8,14.5,44.8,12.2
			L44.8,12.2z M53.4,12.5c0-2.9-1.7-4.6-3.8-4.6c-1.5,0-3.1,0.8-3.1,4c0,2.7,1.5,4.8,3.9,4.8C51.4,16.6,53.4,16.2,53.4,12.5
			L53.4,12.5z"/>
		<path class="st0" d="M56.7,8.6c-0.1-0.5-0.3-0.7-0.5-0.9c-0.1-0.1-0.4-0.1-0.5-0.1s-0.2-0.1-0.2-0.1s0.1-0.1,0.3-0.1
			c0.7,0,1.4,0.1,1.5,0.1s0.7-0.1,1.5-0.1c0.2,0,0.3,0.1,0.3,0.1S59,7.6,58.9,7.6s-0.3,0-0.3,0.1c-0.1,0.1-0.1,0.1-0.2,0.3
			c0,0.2,0.2,0.6,0.3,1.2c0.3,0.8,1.4,4.7,1.7,5.4h0.1L63,7.9c0.1-0.3,0.2-0.5,0.3-0.5c0.2,0,0.2,0.2,0.4,0.6l2.7,6.4h0.1
			c0.2-0.8,1.3-4.2,1.7-5.7c0.1-0.3,0.1-0.6,0.1-0.7c0-0.2-0.1-0.4-0.6-0.4c-0.1,0-0.2-0.1-0.2-0.1s0.1-0.1,0.3-0.1
			c0.7,0,1.2,0.1,1.3,0.1c0.1,0,0.6-0.1,1.1-0.1c0.1,0,0.2,0.1,0.2,0.1s-0.1,0.1-0.2,0.1s-0.3,0-0.5,0.1c-0.3,0.1-0.5,0.6-0.7,1.4
			c-0.6,1.6-1.9,5.7-2.6,7.6c-0.2,0.4-0.2,0.6-0.4,0.6c-0.1,0-0.2-0.2-0.4-0.6l-2.7-6.4h-0.1c-0.2,0.7-1.9,5.2-2.5,6.4
			c-0.3,0.5-0.3,0.7-0.5,0.7c-0.1,0-0.2-0.1-0.3-0.5L56.7,8.6L56.7,8.6z"/>
		<path class="st0" d="M72.1,15.4c0,1,0.2,1.3,0.5,1.4c0.2,0.1,0.5,0.1,0.7,0.1c0.1,0,0.2,0.1,0.2,0.1c0,0.1-0.1,0.1-0.3,0.1
			c-0.8,0-1.4-0.1-1.6-0.1c-0.1,0-0.7,0.1-1.4,0.1c-0.2,0-0.3-0.1-0.3-0.1c0-0.1,0.1-0.1,0.2-0.1c0.2,0,0.4,0,0.6-0.1
			c0.3-0.1,0.4-0.5,0.4-1.6l0.1-7.6c0-0.3,0.1-0.4,0.2-0.4s0.3,0.2,0.5,0.4c0.2,0.2,2.1,2.3,4,4.1c0.9,0.9,2.6,2.7,2.8,2.9h0.1
			l-0.1-5.8c0-0.7-0.1-1-0.4-1.1c-0.2-0.1-0.5-0.1-0.7-0.1c-0.1,0-0.2-0.1-0.2-0.1c0-0.1,0.2-0.1,0.3-0.1c0.7,0,1.3,0.1,1.6,0.1
			c0.1,0,0.6-0.1,1.3-0.1c0.2,0,0.3,0,0.3,0.1s-0.1,0.1-0.2,0.1s-0.3,0-0.4,0.1c-0.3,0.1-0.5,0.4-0.5,1.1l-0.1,8.1
			c0,0.3-0.1,0.4-0.2,0.4c-0.2,0-0.3-0.1-0.5-0.3c-0.8-0.8-2.5-2.5-3.8-3.8c-1.4-1.4-2.8-3-3.1-3.2H72L72.1,15.4L72.1,15.4z"/>
		<path class="st0" d="M82.3,12.6c0.5-0.9,0.6-1,1-1s0.8,0.1,1.7,0.1c0.9,0,1,0,1.2-0.3l0.2,0.1c-0.5,0.9-0.5,1-0.8,1
			c-0.8,0-1.8-0.1-2.6-0.1c-0.2,0-0.3,0-0.5,0.3L82.3,12.6L82.3,12.6z"/>
		<path class="st0" d="M90.9,13.4c0,1.3,0,2.2,0.1,2.7c0.1,0.4,0.1,0.7,0.5,0.7c0.2,0.1,0.5,0.1,0.6,0.1c0.2,0,0.3,0.1,0.3,0.1
			s-0.1,0.1-0.3,0.1c-0.8,0-1.6-0.1-1.9-0.1s-1.2,0.1-1.6,0.1c-0.2,0-0.3-0.1-0.3-0.1s0.1-0.1,0.2-0.1c0.2,0,0.3,0,0.5-0.1
			c0.3-0.1,0.3-0.3,0.4-0.7c0.1-0.5,0.1-1.5,0.1-2.7v-2.2c0-1.9,0-2.3,0-2.7c-0.1-0.4-0.1-0.6-0.5-0.7c-0.1-0.1-0.3-0.1-0.5-0.1
			s-0.3-0.1-0.3-0.1s0.1-0.1,0.3-0.1c0.7,0,1.5,0.1,1.9,0.1c0.5,0,3.1,0,3.4,0s0.4,0,0.5-0.1s0.1-0.1,0.2-0.1s0.1,0.1,0.1,0.1
			S94.5,7.7,94.5,8c-0.1,0.2-0.1,0.9-0.1,1s-0.1,0.2-0.1,0.2c-0.1,0-0.1-0.1-0.1-0.2s0-0.3-0.1-0.5s-0.3-0.4-0.8-0.4l-2-0.1
			c-0.1,0-0.1,0.1-0.1,0.2v3.2c0,0.1,0.1,0.1,0.1,0.1h1.6c0.2,0,0.4,0,0.6,0c0.3-0.1,0.4-0.1,0.5-0.3c0.1-0.1,0.1-0.1,0.2-0.1
			s0.1,0.1,0.1,0.1s-0.1,0.4-0.1,0.8c-0.1,0.3-0.1,0.8-0.1,0.9s0,0.2-0.1,0.2s-0.1-0.1-0.1-0.2s-0.1-0.3-0.1-0.4
			c-0.1-0.2-0.3-0.4-0.7-0.5c-0.3-0.1-1.7-0.1-1.9-0.1c-0.1,0-0.1,0.1-0.1,0.1L90.9,13.4L90.9,13.4z"/>
		<path class="st0" d="M95.6,12.2c0-2.2,1.5-5,5.3-5c3.2,0,5.2,1.9,5.2,4.8s-2.1,5.2-5.3,5.2C97.1,17.3,95.6,14.5,95.6,12.2
			L95.6,12.2z M104.3,12.5c0.1-2.9-1.6-4.6-3.7-4.6c-1.5,0-3.1,0.8-3.1,4c0,2.7,1.5,4.8,3.9,4.8C102.2,16.6,104.3,16.2,104.3,12.5
			L104.3,12.5z"/>
		<path class="st0" d="M108.6,11.1c0-1.9,0-2.3-0.1-2.7s-0.1-0.6-0.5-0.7c-0.1-0.1-0.3-0.1-0.5-0.1s-0.2-0.1-0.2-0.1
			s0.1-0.1,0.3-0.1c0.7,0,1.5,0.1,1.8,0.1c0.4,0,1.4-0.1,1.8-0.1c0.8,0,1.7,0.1,2.4,0.6c0.4,0.2,0.9,0.9,0.9,1.7
			c0,0.9-0.4,1.8-1.7,2.9c1.2,1.5,2,2.6,2.8,3.4c0.7,0.7,1.3,0.9,1.5,0.9c0.1,0.1,0.3,0.1,0.4,0.1c0.1,0,0.1,0.1,0.1,0.1
			c0,0.1-0.1,0.1-0.3,0.1h-1.2c-0.7,0-1-0.1-1.4-0.3c-0.5-0.3-1-0.9-1.7-1.9c-0.5-0.7-1.1-1.6-1.3-1.8c-0.1-0.1-0.1-0.1-0.2-0.1
			l-1.1-0.1c-0.1,0-0.1,0.1-0.1,0.1v0.2c0,1.2,0,2.2,0.1,2.7c0.1,0.4,0.1,0.7,0.5,0.7c0.2,0.1,0.5,0.1,0.6,0.1s0.2,0.1,0.2,0.1
			c0,0.1-0.1,0.1-0.3,0.1c-0.7,0-1.7-0.1-1.9-0.1c-0.3,0-1,0.1-1.6,0.1c-0.2,0-0.3-0.1-0.3-0.1c0-0.1,0.1-0.1,0.2-0.1
			c0.2,0,0.3,0,0.5-0.1c0.3-0.1,0.3-0.3,0.4-0.7c0.1-0.5,0.1-1.5,0.1-2.7v-2.2H108.6z M110.1,12.1c0,0.2,0.1,0.2,0.1,0.3
			c0.3,0.1,0.7,0.1,0.9,0.1c0.5,0,0.7-0.1,0.9-0.2c0.4-0.3,0.8-0.9,0.8-1.9c0-1.8-1.2-2.3-2-2.3c-0.3,0-0.5,0-0.7,0.1
			C110,8.3,110,8.3,110,8.4L110.1,12.1L110.1,12.1z"/>
		<path class="st0" d="M118.7,7.5c0.1-0.3,0.1-0.3,0.2-0.3c0.1,0,0.2,0.1,0.3,0.4l3.5,7.2l3.5-7.3c0.1-0.2,0.2-0.3,0.3-0.3
			s0.2,0.1,0.2,0.4l1.2,7.9c0.1,0.8,0.3,1.2,0.6,1.3c0.4,0.1,0.7,0.1,0.8,0.1s0.2,0.1,0.2,0.1s-0.2,0.1-0.3,0.1
			c-0.3,0-2.1-0.1-2.6-0.1c-0.3,0-0.4-0.1-0.4-0.1c0-0.1,0.1-0.1,0.1-0.2c0.1,0,0.1-0.2,0.1-0.5l-0.8-5.6h-0.1l-2.8,5.8
			c-0.3,0.6-0.4,0.7-0.5,0.7s-0.3-0.3-0.5-0.7c-0.3-0.6-1.3-2.5-1.5-2.9c-0.1-0.3-0.9-1.9-1.3-2.9h-0.1l-0.7,5.1c0,0.3,0,0.4,0,0.6
			c0,0.3,0.2,0.4,0.4,0.4c0.2,0.1,0.4,0.1,0.5,0.1s0.2,0.1,0.2,0.1s-0.1,0.1-0.3,0.1c-0.5,0-1.1-0.1-1.3-0.1c-0.3,0-0.9,0.1-1.3,0.1
			c-0.1,0-0.3-0.1-0.3-0.1s0.1-0.1,0.2-0.1c0.1,0,0.2,0,0.4-0.1c0.3-0.1,0.5-0.5,0.5-1L118.7,7.5L118.7,7.5z"/>
		<path class="st0" d="M132.2,13.7c-0.1,0-0.1,0.1-0.1,0.1l-0.7,1.8c-0.1,0.3-0.2,0.6-0.2,0.8c0,0.2,0.1,0.4,0.5,0.4h0.2
			c0.2,0,0.2,0.1,0.2,0.1c0,0.1-0.1,0.1-0.3,0.1c-0.4,0-0.9-0.1-1.3-0.1c-0.2,0-0.9,0.1-1.5,0.1c-0.2,0-0.3-0.1-0.3-0.1
			c0-0.1,0.1-0.1,0.2-0.1c0.1,0,0.3,0,0.4,0c0.6-0.1,0.8-0.5,1.1-1.2l3.2-8c0.2-0.4,0.3-0.5,0.4-0.5c0.1,0,0.2,0.1,0.3,0.4
			c0.3,0.7,2.4,5.9,3.1,7.9c0.5,1.1,0.9,1.3,1.2,1.4c0.2,0.1,0.4,0.1,0.5,0.1s0.2,0.1,0.2,0.1s-0.1,0.1-0.6,0.1s-1.4,0-2.4-0.1
			c-0.3,0-0.4,0-0.4-0.1s0.1-0.1,0.2-0.1c0.1,0,0.2-0.1,0.1-0.3l-1-2.7c-0.1-0.1-0.1-0.1-0.1-0.1L132.2,13.7L132.2,13.7z
			 M134.8,13.1C134.9,13.1,134.9,13.1,134.8,13.1l-1.1-3.2c0-0.1-0.1-0.1-0.1-0.1c-0.1,0-0.1,0.1-0.1,0.1l-1.2,3.1
			c0,0.1,0,0.1,0.1,0.1H134.8L134.8,13.1z"/>
		<path class="st0" d="M141.4,15.4c0,1,0.2,1.3,0.5,1.4c0.2,0.1,0.5,0.1,0.7,0.1c0.1,0,0.2,0.1,0.2,0.1c0,0.1-0.1,0.1-0.3,0.1
			c-0.8,0-1.4-0.1-1.6-0.1c-0.1,0-0.7,0.1-1.4,0.1c-0.2,0-0.3,0-0.3-0.1s0.1-0.1,0.2-0.1c0.2,0,0.4,0,0.6-0.1
			c0.3-0.1,0.4-0.5,0.4-1.6l0.1-7.6c0-0.3,0.1-0.5,0.2-0.5c0.1,0,0.3,0.2,0.5,0.4c0.2,0.2,2.1,2.2,4,4.1c0.9,0.9,2.6,2.7,2.8,2.9
			h0.1L148,8.8c0-0.8-0.1-1-0.4-1.2c-0.2-0.1-0.5-0.1-0.7-0.1c-0.1,0-0.2-0.1-0.2-0.1s0.2-0.1,0.4-0.1c0.7,0,1.3,0.1,1.5,0.1
			c0.1,0,0.6-0.1,1.3-0.1c0.2,0,0.3,0.1,0.3,0.1s-0.1,0.1-0.2,0.1s-0.3,0-0.4,0.1c-0.3,0.1-0.5,0.4-0.5,1.1l-0.1,8.1
			c0,0.3-0.1,0.4-0.2,0.4c-0.2,0-0.3-0.2-0.5-0.3c-0.8-0.8-2.5-2.5-3.8-3.8c-1.4-1.4-2.8-3-3.1-3.2h-0.1L141.4,15.4L141.4,15.4z"/>
	</g>
</g>
</svg>
